<svg id="line" height="512" viewBox="0 0 64 64" width="512" xmlns="http://www.w3.org/2000/svg"><path d="m12 25v-3a3 3 0 0 1 3-3h44a3 3 0 0 1 3 3v3z" fill="#c4a2fc"/><path d="m12 27v33a3 3 0 0 0 3 3h44a3 3 0 0 0 3-3v-33zm44 4a1 1 0 0 1 2 0v28a1 1 0 0 1 -2 0zm-12 26a1 1 0 0 1 1-1h8a1 1 0 0 1 0 2h-8a1 1 0 0 1 -1-1zm0-8a1 1 0 0 1 1-1h8a1 1 0 0 1 0 2h-8a1 1 0 0 1 -1-1zm0-8a1 1 0 0 1 1-1h8a1 1 0 0 1 0 2h-8a1 1 0 0 1 -1-1zm0-8a1 1 0 0 1 1-1h8a1 1 0 0 1 0 2h-8a1 1 0 0 1 -1-1zm-28 24a1 1 0 0 1 1-1h24a1 1 0 0 1 0 2h-24a1 1 0 0 1 -1-1zm0-8a1 1 0 0 1 1-1h24a1 1 0 0 1 0 2h-24a1 1 0 0 1 -1-1zm0-8a1 1 0 0 1 1-1h24a1 1 0 0 1 0 2h-24a1 1 0 0 1 -1-1zm0-8a1 1 0 0 1 1-1h24a1 1 0 0 1 0 2h-24a1 1 0 0 1 -1-1z" fill="#c4a2fc"/><g fill="#151a6a"><path d="m13 1a11 11 0 1 0 11 11 11 11 0 0 0 -11-11zm0 20a9 9 0 1 1 9-9 9 9 0 0 1 -9 9z"/><path d="m38 1a11 11 0 1 0 11 11 11 11 0 0 0 -11-11zm-9 11a9 9 0 0 1 17.22-3.64l-4.22 4.23-3.29-3.3a1 1 0 0 0 -1.42 0l-7.12 7.13a8.94 8.94 0 0 1 -1.17-4.42zm9 9a9 9 0 0 1 -6.64-2.95l6.64-6.63 3.29 3.29a1 1 0 0 0 1.42 0l4.16-4.17a8.81 8.81 0 0 1 .13 1.46 9 9 0 0 1 -9 9z"/><path d="m18 11.13-7-4a1 1 0 0 0 -1.46.87v8a1 1 0 0 0 1.5.87l6.92-4a1 1 0 0 0 .04-1.74zm-6.42 3.14v-4.54l3.88 2.27z"/><circle cx="34" cy="8" r="1"/><path d="m13 26a11 11 0 1 0 11 11 11 11 0 0 0 -11-11zm0 20a9 9 0 1 1 9-9 9 9 0 0 1 -9 9z"/><path d="m15.5 31.47h-5a1 1 0 0 0 0 2h1.5v8.06a1 1 0 0 0 2 0v-8.06h1.5a1 1 0 0 0 0-2z"/></g></svg>